<?xml version="1.0" encoding="UTF-8" standalone="no"?><svg xmlns="http://www.w3.org/2000/svg" xmlns:xlink="http://www.w3.org/1999/xlink" contentStyleType="text/css" height="285px" preserveAspectRatio="none" style="width:528px;height:285px;background:#FFFFFF;" version="1.1" viewBox="0 0 528 285" width="528px" zoomAndPan="magnify"><defs/><g><rect fill="#FFFFFF" height="185.7969" style="stroke:#181818;stroke-width:1.0;" width="10" x="28" y="46.2969"/><rect fill="#FFFFFF" height="71.2656" style="stroke:#181818;stroke-width:1.0;" width="10" x="189" y="67.4297"/><rect fill="#FFFFFF" height="64.2656" style="stroke:#181818;stroke-width:1.0;" width="10" x="189" y="167.8281"/><line style="stroke:#181818;stroke-width:0.5;stroke-dasharray:5.0,5.0;" x1="33" x2="33" y1="36.2969" y2="250.0938"/><line style="stroke:#181818;stroke-width:0.5;stroke-dasharray:5.0,5.0;" x1="194" x2="194" y1="36.2969" y2="250.0938"/><rect fill="#E2E2F0" height="30.2969" rx="2.5" ry="2.5" style="stroke:#181818;stroke-width:0.5;" width="56" x="5" y="5"/><text fill="#000000" font-family="sans-serif" font-size="14" lengthAdjust="spacing" textLength="42" x="12" y="24.9951">客户端</text><rect fill="#E2E2F0" height="30.2969" rx="2.5" ry="2.5" style="stroke:#181818;stroke-width:0.5;" width="56" x="5" y="249.0938"/><text fill="#000000" font-family="sans-serif" font-size="14" lengthAdjust="spacing" textLength="42" x="12" y="269.0889">客户端</text><rect fill="#FFA500" height="30.2969" rx="2.5" ry="2.5" style="stroke:#181818;stroke-width:0.5;" width="84" x="152" y="5"/><text fill="#000000" font-family="sans-serif" font-size="14" lengthAdjust="spacing" textLength="70" x="159" y="24.9951">认证服务器</text><rect fill="#FFA500" height="30.2969" rx="2.5" ry="2.5" style="stroke:#181818;stroke-width:0.5;" width="84" x="152" y="249.0938"/><text fill="#000000" font-family="sans-serif" font-size="14" lengthAdjust="spacing" textLength="70" x="159" y="269.0889">认证服务器</text><rect fill="#FFFFFF" height="185.7969" style="stroke:#181818;stroke-width:1.0;" width="10" x="28" y="46.2969"/><rect fill="#FFFFFF" height="71.2656" style="stroke:#181818;stroke-width:1.0;" width="10" x="189" y="67.4297"/><rect fill="#FFFFFF" height="64.2656" style="stroke:#181818;stroke-width:1.0;" width="10" x="189" y="167.8281"/><polygon fill="#181818" points="177,63.4297,187,67.4297,177,71.4297,181,67.4297" style="stroke:#181818;stroke-width:1.0;"/><line style="stroke:#181818;stroke-width:1.0;" x1="38" x2="183" y1="67.4297" y2="67.4297"/><text fill="#000000" font-family="sans-serif" font-size="13" font-weight="bold" lengthAdjust="spacing" textLength="9" x="45" y="62.3638">1</text><text fill="#000000" font-family="sans-serif" font-size="13" lengthAdjust="spacing" textLength="91" x="58" y="62.3638">注册客户端信息</text><line style="stroke:#181818;stroke-width:1.0;" x1="199" x2="241" y1="96.5625" y2="96.5625"/><line style="stroke:#181818;stroke-width:1.0;" x1="241" x2="241" y1="96.5625" y2="109.5625"/><line style="stroke:#181818;stroke-width:1.0;" x1="200" x2="241" y1="109.5625" y2="109.5625"/><polygon fill="#181818" points="210,105.5625,200,109.5625,210,113.5625,206,109.5625" style="stroke:#181818;stroke-width:1.0;"/><text fill="#000000" font-family="sans-serif" font-size="13" font-weight="bold" lengthAdjust="spacing" textLength="9" x="206" y="91.4966">2</text><text fill="#000000" font-family="sans-serif" font-size="13" lengthAdjust="spacing" textLength="302" x="219" y="91.4966">存储客户端信息，例如：client_id、client_secret等</text><polygon fill="#181818" points="49,134.6953,39,138.6953,49,142.6953,45,138.6953" style="stroke:#181818;stroke-width:1.0;"/><line style="stroke:#181818;stroke-width:1.0;stroke-dasharray:2.0,2.0;" x1="43" x2="193" y1="138.6953" y2="138.6953"/><text fill="#000000" font-family="sans-serif" font-size="13" font-weight="bold" lengthAdjust="spacing" textLength="9" x="55" y="133.6294">3</text><text fill="#000000" font-family="sans-serif" font-size="13" lengthAdjust="spacing" textLength="91" x="68" y="133.6294">存储客户端成功</text><polygon fill="#181818" points="177,163.8281,187,167.8281,177,171.8281,181,167.8281" style="stroke:#181818;stroke-width:1.0;"/><line style="stroke:#181818;stroke-width:1.0;" x1="38" x2="183" y1="167.8281" y2="167.8281"/><text fill="#000000" font-family="sans-serif" font-size="13" font-weight="bold" lengthAdjust="spacing" textLength="9" x="45" y="162.7622">4</text><text fill="#000000" font-family="sans-serif" font-size="13" lengthAdjust="spacing" textLength="114" x="58" y="162.7622">获取令牌（token）</text><path d="M43,180.8281 L43,205.8281 L466,205.8281 L466,190.8281 L456,180.8281 L43,180.8281 " fill="#FEFFDD" style="stroke:#181818;stroke-width:0.5;"/><path d="M456,180.8281 L456,190.8281 L466,190.8281 L456,180.8281 " fill="#FEFFDD" style="stroke:#181818;stroke-width:0.5;"/><text fill="#000000" font-family="sans-serif" font-size="13" lengthAdjust="spacing" textLength="402" x="49" y="197.895">请求参数client_id、client_secret、grant_type=client_credentials</text><polygon fill="#181818" points="44,228.0938,34,232.0938,44,236.0938,40,232.0938" style="stroke:#181818;stroke-width:1.0;"/><line style="stroke:#181818;stroke-width:1.0;" x1="38" x2="193" y1="232.0938" y2="232.0938"/><text fill="#000000" font-family="sans-serif" font-size="13" font-weight="bold" lengthAdjust="spacing" textLength="9" x="50" y="227.0278">5</text><text fill="#000000" font-family="sans-serif" font-size="13" lengthAdjust="spacing" textLength="114" x="63" y="227.0278">返回令牌（token）</text></g></svg>