<?xml version="1.0" encoding="UTF-8" standalone="no"?><svg xmlns="http://www.w3.org/2000/svg" xmlns:xlink="http://www.w3.org/1999/xlink" contentStyleType="text/css" height="518px" preserveAspectRatio="none" style="width:1100px;height:518px;background:#FFFFFF;" version="1.1" viewBox="0 0 1100 518" width="1100px" zoomAndPan="magnify"><defs/><g><rect fill="#FFFFFF" height="235.9297" style="stroke:#181818;stroke-width:1.0;" width="10" x="17" y="183.6953"/><rect fill="#FFFFFF" height="92.3984" style="stroke:#181818;stroke-width:1.0;" width="10" x="215" y="91.2969"/><rect fill="#FFFFFF" height="206.7969" style="stroke:#181818;stroke-width:1.0;" width="10" x="215" y="212.8281"/><rect fill="#FFFFFF" height="71.2656" style="stroke:#181818;stroke-width:1.0;" width="10" x="761" y="112.4297"/><rect fill="#FFFFFF" height="148.5313" style="stroke:#181818;stroke-width:1.0;" width="10" x="761" y="241.9609"/><line style="stroke:#181818;stroke-width:0.5;stroke-dasharray:5.0,5.0;" x1="22" x2="22" y1="81.2969" y2="437.625"/><line style="stroke:#181818;stroke-width:0.5;stroke-dasharray:5.0,5.0;" x1="220" x2="220" y1="81.2969" y2="437.625"/><line style="stroke:#181818;stroke-width:0.5;stroke-dasharray:5.0,5.0;" x1="766" x2="766" y1="81.2969" y2="437.625"/><text fill="#000000" font-family="sans-serif" font-size="14" lengthAdjust="spacing" textLength="28" x="5" y="77.9951">用户</text><ellipse cx="22" cy="13.5" fill="#E2E2F0" rx="8" ry="8" style="stroke:#181818;stroke-width:0.5;"/><path d="M22,21.5 L22,48.5 M9,29.5 L35,29.5 M22,48.5 L9,63.5 M22,48.5 L35,63.5 " fill="none" style="stroke:#181818;stroke-width:0.5;"/><text fill="#000000" font-family="sans-serif" font-size="14" lengthAdjust="spacing" textLength="28" x="5" y="449.6201">用户</text><ellipse cx="22" cy="461.4219" fill="#E2E2F0" rx="8" ry="8" style="stroke:#181818;stroke-width:0.5;"/><path d="M22,469.4219 L22,496.4219 M9,477.4219 L35,477.4219 M22,496.4219 L9,511.4219 M22,496.4219 L35,511.4219 " fill="none" style="stroke:#181818;stroke-width:0.5;"/><rect fill="#E2E2F0" height="30.2969" rx="2.5" ry="2.5" style="stroke:#181818;stroke-width:0.5;" width="56" x="192" y="50"/><text fill="#000000" font-family="sans-serif" font-size="14" lengthAdjust="spacing" textLength="42" x="199" y="69.9951">客户端</text><rect fill="#E2E2F0" height="30.2969" rx="2.5" ry="2.5" style="stroke:#181818;stroke-width:0.5;" width="56" x="192" y="436.625"/><text fill="#000000" font-family="sans-serif" font-size="14" lengthAdjust="spacing" textLength="42" x="199" y="456.6201">客户端</text><rect fill="#FFA500" height="30.2969" rx="2.5" ry="2.5" style="stroke:#181818;stroke-width:0.5;" width="84" x="724" y="50"/><text fill="#000000" font-family="sans-serif" font-size="14" lengthAdjust="spacing" textLength="70" x="731" y="69.9951">认证服务器</text><rect fill="#FFA500" height="30.2969" rx="2.5" ry="2.5" style="stroke:#181818;stroke-width:0.5;" width="84" x="724" y="436.625"/><text fill="#000000" font-family="sans-serif" font-size="14" lengthAdjust="spacing" textLength="70" x="731" y="456.6201">认证服务器</text><rect fill="#FFFFFF" height="235.9297" style="stroke:#181818;stroke-width:1.0;" width="10" x="17" y="183.6953"/><rect fill="#FFFFFF" height="92.3984" style="stroke:#181818;stroke-width:1.0;" width="10" x="215" y="91.2969"/><rect fill="#FFFFFF" height="206.7969" style="stroke:#181818;stroke-width:1.0;" width="10" x="215" y="212.8281"/><rect fill="#FFFFFF" height="71.2656" style="stroke:#181818;stroke-width:1.0;" width="10" x="761" y="112.4297"/><rect fill="#FFFFFF" height="148.5313" style="stroke:#181818;stroke-width:1.0;" width="10" x="761" y="241.9609"/><polygon fill="#181818" points="749,108.4297,759,112.4297,749,116.4297,753,112.4297" style="stroke:#181818;stroke-width:1.0;"/><line style="stroke:#181818;stroke-width:1.0;stroke-dasharray:2.0,2.0;" x1="225" x2="755" y1="112.4297" y2="112.4297"/><text fill="#000000" font-family="sans-serif" font-size="13" font-weight="bold" lengthAdjust="spacing" textLength="9" x="232" y="107.3638">1</text><text fill="#000000" font-family="sans-serif" font-size="13" lengthAdjust="spacing" textLength="91" x="245" y="107.3638">注册客户端信息</text><line style="stroke:#181818;stroke-width:1.0;" x1="771" x2="813" y1="141.5625" y2="141.5625"/><line style="stroke:#181818;stroke-width:1.0;" x1="813" x2="813" y1="141.5625" y2="154.5625"/><line style="stroke:#181818;stroke-width:1.0;" x1="772" x2="813" y1="154.5625" y2="154.5625"/><polygon fill="#181818" points="782,150.5625,772,154.5625,782,158.5625,778,154.5625" style="stroke:#181818;stroke-width:1.0;"/><text fill="#000000" font-family="sans-serif" font-size="13" font-weight="bold" lengthAdjust="spacing" textLength="9" x="778" y="136.4966">2</text><text fill="#000000" font-family="sans-serif" font-size="13" lengthAdjust="spacing" textLength="302" x="791" y="136.4966">存储客户端信息，例如：client_id、client_secret等</text><polygon fill="#181818" points="231,179.6953,221,183.6953,231,187.6953,227,183.6953" style="stroke:#181818;stroke-width:1.0;"/><line style="stroke:#181818;stroke-width:1.0;stroke-dasharray:2.0,2.0;" x1="225" x2="765" y1="183.6953" y2="183.6953"/><text fill="#000000" font-family="sans-serif" font-size="13" font-weight="bold" lengthAdjust="spacing" textLength="9" x="237" y="178.6294">3</text><text fill="#000000" font-family="sans-serif" font-size="13" lengthAdjust="spacing" textLength="117" x="250" y="178.6294">存储客户端信息成功</text><polygon fill="#181818" points="203,208.8281,213,212.8281,203,216.8281,207,212.8281" style="stroke:#181818;stroke-width:1.0;"/><line style="stroke:#181818;stroke-width:1.0;" x1="27" x2="209" y1="212.8281" y2="212.8281"/><text fill="#000000" font-family="sans-serif" font-size="13" font-weight="bold" lengthAdjust="spacing" textLength="9" x="34" y="207.7622">4</text><text fill="#000000" font-family="sans-serif" font-size="13" lengthAdjust="spacing" textLength="156" x="47" y="207.7622">提供认证平台的账号、密码</text><polygon fill="#181818" points="749,237.9609,759,241.9609,749,245.9609,753,241.9609" style="stroke:#181818;stroke-width:1.0;"/><line style="stroke:#181818;stroke-width:1.0;" x1="225" x2="755" y1="241.9609" y2="241.9609"/><text fill="#000000" font-family="sans-serif" font-size="13" font-weight="bold" lengthAdjust="spacing" textLength="9" x="232" y="236.895">5</text><text fill="#000000" font-family="sans-serif" font-size="13" lengthAdjust="spacing" textLength="504" x="245" y="236.895">带上客户端信息及用户输入的账号、密码向认证服务器（认证平台）获取令牌（token）</text><path d="M230,254.9609 L230,279.9609 L753,279.9609 L753,264.9609 L743,254.9609 L230,254.9609 " fill="#FEFFDD" style="stroke:#181818;stroke-width:0.5;"/><path d="M743,254.9609 L743,264.9609 L753,264.9609 L743,254.9609 " fill="#FEFFDD" style="stroke:#181818;stroke-width:0.5;"/><text fill="#000000" font-family="sans-serif" font-size="13" lengthAdjust="spacing" textLength="502" x="236" y="272.0278">请求参数client_id、client_secret、username、password、grant_type=password</text><line style="stroke:#181818;stroke-width:1.0;" x1="771" x2="813" y1="306.2266" y2="306.2266"/><line style="stroke:#181818;stroke-width:1.0;" x1="813" x2="813" y1="306.2266" y2="319.2266"/><line style="stroke:#181818;stroke-width:1.0;" x1="772" x2="813" y1="319.2266" y2="319.2266"/><polygon fill="#181818" points="782,315.2266,772,319.2266,782,323.2266,778,319.2266" style="stroke:#181818;stroke-width:1.0;"/><text fill="#000000" font-family="sans-serif" font-size="13" font-weight="bold" lengthAdjust="spacing" textLength="9" x="778" y="301.1606">6</text><text fill="#000000" font-family="sans-serif" font-size="13" lengthAdjust="spacing" textLength="143" x="791" y="301.1606">校验客户端信息是否正确</text><line style="stroke:#181818;stroke-width:1.0;" x1="771" x2="813" y1="348.3594" y2="348.3594"/><line style="stroke:#181818;stroke-width:1.0;" x1="813" x2="813" y1="348.3594" y2="361.3594"/><line style="stroke:#181818;stroke-width:1.0;" x1="772" x2="813" y1="361.3594" y2="361.3594"/><polygon fill="#181818" points="782,357.3594,772,361.3594,782,365.3594,778,361.3594" style="stroke:#181818;stroke-width:1.0;"/><text fill="#000000" font-family="sans-serif" font-size="13" font-weight="bold" lengthAdjust="spacing" textLength="9" x="778" y="343.2935">7</text><text fill="#000000" font-family="sans-serif" font-size="13" lengthAdjust="spacing" textLength="130" x="791" y="343.2935">校验账号密码是否正确</text><polygon fill="#181818" points="236,386.4922,226,390.4922,236,394.4922,232,390.4922" style="stroke:#181818;stroke-width:1.0;"/><line style="stroke:#181818;stroke-width:1.0;" x1="230" x2="765" y1="390.4922" y2="390.4922"/><text fill="#000000" font-family="sans-serif" font-size="13" font-weight="bold" lengthAdjust="spacing" textLength="9" x="242" y="385.4263">8</text><text fill="#000000" font-family="sans-serif" font-size="13" lengthAdjust="spacing" textLength="114" x="255" y="385.4263">返回令牌（token）</text><polygon fill="#181818" points="33,415.625,23,419.625,33,423.625,29,419.625" style="stroke:#181818;stroke-width:1.0;"/><line style="stroke:#181818;stroke-width:1.0;stroke-dasharray:2.0,2.0;" x1="27" x2="219" y1="419.625" y2="419.625"/><text fill="#000000" font-family="sans-serif" font-size="13" font-weight="bold" lengthAdjust="spacing" textLength="9" x="39" y="414.5591">9</text><text fill="#000000" font-family="sans-serif" font-size="13" lengthAdjust="spacing" textLength="78" x="52" y="414.5591">显示登录成功</text></g></svg>